<svg xmlns="http://www.w3.org/2000/svg" width="800" height="483.13" viewBox="0 0 800 483.13" xmlns:xlink="http://www.w3.org/1999/xlink" role="img" artist="Katerina Limpitsouni" source="https://undraw.co/">

<g transform="translate(-606.368 -309)">

<path d="M187.714,76.088a71.467,71.467,0,1,1,92.878,68.2L278.2,281.827,168.97,174.011s42.591-16.491,50.751-38.343a71.389,71.389,0,0,1-32.006-59.58Z" transform="translate(544.984 320.712)" fill="#ed9da0"/>

<path d="M220.569,135.561s-24.384-8.684-36.884-34.047c-11.482-23.3-12.741-62.982,19.86-72.621,0,0-18.782-16.216,15.846-26.1l-4.606,4.25s4.065-7.341,24.137-3c0,0,74.17-8.639,87.335,15.782,0,0,39.808,8.158,18.609,38.44,0,0-1.1,5.893-8.66,5.782l3.779-4.943-11.518,4.943s-16.019-25.515-31.138-11.407c0,0-28.916-1.217-42.746-3.75,0,0,2.776,37.144-23.768,44.378s-10.245,42.288-10.245,42.288Z" transform="translate(544.455 320.861)" fill="#090814"/>

<path d="M477.263,399.905,346.64,477.826,335.778,427.2l123.766-58.8c2.344-8.9,8.826-17.406,18.44-22.812,16.822-9.46,36.806-5.843,44.635,8.078s.539,32.876-16.283,42.336c-9.614,5.407-20.252,6.525-29.072,3.907Z" transform="translate(532.975 296.547)" fill="#ed9da0"/>

<path d="M497.362,392.963H470.756a9.842,9.842,0,0,1-9.561-7.7h0a9.82,9.82,0,0,1,2.935-9.281l81.129-74.67a6.478,6.478,0,0,1,4.62-1.711l25.756.888a6.493,6.493,0,0,1,4.44,11.005l-76.266,78.742A9.02,9.02,0,0,1,497.362,392.963Z" transform="translate(523.963 299.478)" fill="#090814"/>

<path d="M194.983,167.618c30.106,30.251,58.7,38.372,85,13.149l37.153,272.239-15.447,22.383-93.944.268L194.983,167.618Z" transform="translate(543.111 308.979)" fill="#6c63ff"/>

<path d="M179.821,164.549l-15.709,12.912-47.692,27.22A71.067,71.067,0,0,0,73.33,250.137,428.119,428.119,0,0,0,57.181,325.2c-7.839,64.362-2.146,149.229-2.146,149.229l72.507.63L124.39,432.5,112.726,327.2l.309,148.12h84.493S203.31,224.1,190.71,168.234a6.76,6.76,0,0,0-10.889-3.684Z" transform="translate(553.33 309.311)" fill="#090814"/>

<path d="M286.579,181.787l57.13,27.471A69.676,69.676,0,0,1,381.76,258L405.7,374.268l7.823,70.33s-33.655,30.141-55.741,20.146l1.576,11.664H308.285L286.579,181.787Z" transform="translate(536.516 307.958)" fill="#090814"/>

<path d="M375.912,407.376l67.148-37.2,19.23,53.277s-38.6,47.825-98.988,54.853l12.61-70.931Z" transform="translate(530.995 294.396)" fill="#090814"/>

<path d="M496.371,386.56a3.151,3.151,0,0,1-.426-.03l-25.471-3.566a3.106,3.106,0,0,1-1.722-5.316l76.107-73.122a3.231,3.231,0,0,1,2.24-.866l26.837.77a3.106,3.106,0,0,1,2.085,5.324L498.55,385.674a3.137,3.137,0,0,1-2.179.887Z" transform="translate(523.472 299.185)" fill="#f2f2f2"/>

<path d="M373.83,490.038a283.545,283.545,0,0,1-30.322-73.379,289.089,289.089,0,0,1-9.094-78.489,279.277,279.277,0,0,1,4.524-44.335c.322-1.751-2.36-2.5-2.685-.74a283.832,283.832,0,0,0-4.461,39.9,288.068,288.068,0,0,0,1.191,40.161,294.371,294.371,0,0,0,6.639,39.41,288.9,288.9,0,0,0,12.05,38.331,283.572,283.572,0,0,0,17.258,36.237q1.229,2.165,2.5,4.307a1.393,1.393,0,0,0,2.4-1.405h0Z" transform="translate(533.279 300.018)" fill="#fff"/>

<path d="M425.757,374.288a49.934,49.934,0,0,1-33.684,24.083c-1.757.339-1.013,3.022.74,2.685a52.635,52.635,0,0,0,35.348-25.362,1.393,1.393,0,0,0-2.4-1.405h0Z" transform="translate(528.996 294.149)" fill="#fff"/>

<path d="M133.426,489.26c-1.4-14.5-.4-29.262.916-43.739a371.848,371.848,0,0,1,7.6-49.584,139.382,139.382,0,0,1,6.413-21.45c.609-1.495-2.08-2.138-2.685-.655a132.366,132.366,0,0,0-5.824,18.949c-1.892,7.836-3.386,15.746-4.653,23.679a402.989,402.989,0,0,0-4.992,50.294,174.25,174.25,0,0,0,.438,22.505c.152,1.568,2.937,1.583,2.784,0Z" transform="translate(547.786 294.194)" fill="#fff"/>

<path d="M225.032,473.34,121.581,485.162l9.93-39.722,91.736-8.207c6.071-6.914,15.67-11.633,26.686-12.177,19.276-.953,35.542,11.207,36.33,27.159s-14.2,29.657-33.475,30.61c-11.017.545-21.034-3.2-27.757-9.486Z" transform="translate(548.396 290.45)" fill="#ed9da0"/>

<path d="M127.535,432.241l76.693-3.3L197.643,485.2s-55.893,25.555-113.066,4.878l42.957-57.836Z" transform="translate(551.06 290.166)" fill="#090814"/>

<path d="M280.648,182.135,317.433,451.68l3.2-4.644L283.485,174.8c-24.034,23.045-49.976,18.256-77.238-5.815a4.4,4.4,0,0,0-7.308,3.221c28.9,27.573,56.364,34.233,81.709,9.932Z" transform="translate(542.826 308.96)" fill="#090814"/>

<g transform="translate(1105.879 476.829)">





</g>



<g transform="translate(256.469 15.829)">
</g>

</g>
</svg>